<svg id="Camada_1" data-name="Camada 1" xmlns="http://www.w3.org/2000/svg" viewBox="0 0 299.5 292.71"><defs><style>.cls-1{fill:#5f96d8;}</style></defs><title>ícones_menu_créditos</title><path class="cls-1" d="M197.35,137.81H100.09s0,0,0,0l-1.68-10A4.42,4.42,0,0,0,94,124H78.5a4.44,4.44,0,0,0-4.42,4.84,4.6,4.6,0,0,0,4.65,4H90.21a0,0,0,0,1,0,0l13.13,78.82,0,.08c.07.17.14.34.22.58l0,.17a3,3,0,0,0,.18.51,4.41,4.41,0,0,0,.54.77l.15.19c.1.14.21.27.25.32a4.88,4.88,0,0,0,.85.54l.44.27.1.07a4.16,4.16,0,0,0,1.57.32h75.8a4.43,4.43,0,0,0,4.41-4.84,4.59,4.59,0,0,0-4.65-4H111.57s0,0,0,0l-2-11.72a0,0,0,0,1,0,0h80.84a4.45,4.45,0,0,0,4.39-3.8l6.89-48.23a4.44,4.44,0,0,0-4.39-5.06ZM130.9,186s0,0,0,0H108.12s0,0,0,0L105,167.39a.05.05,0,0,1,0,0h25.83a0,0,0,0,1,0,0Zm0-20.67s0,0,0,0h-23l-3.44.2s0,0,0,0l-2.81-18.81s0-.05,0-.05h29.28a0,0,0,0,1,0,0ZM158.46,186a0,0,0,0,1,0,0h-25.5a0,0,0,0,1,0,0V167.38a0,0,0,0,1,0,0h25.5a0,0,0,0,1,0,0Zm0-20.67a0,0,0,0,1,0,0h-25.5a0,0,0,0,1,0,0V146.71a0,0,0,0,1,0,0h25.5a0,0,0,0,1,0,0ZM186.62,186s0,0,0,0h-26.1a0,0,0,0,1,0,0V167.38a0,0,0,0,1,0,0h28.75a0,0,0,0,1,0,0Zm2.95-20.67s0,0,0,0H160.48a0,0,0,0,1,0,0V146.71a0,0,0,0,1,0,0h31.7a.05.05,0,0,1,0,.05Z"/><path class="cls-1" d="M118.11,227.37a7.88,7.88,0,1,0,7.88,7.88A7.89,7.89,0,0,0,118.11,227.37Z"/><path class="cls-1" d="M180.12,227.37a7.88,7.88,0,1,0,7.88,7.88A7.9,7.9,0,0,0,180.12,227.37Z"/><path class="cls-1" d="M223.7,97.25s0-.08,0-.12l-.07-.45L198.05,56.81l-.77-.75c-.45-.44-1-.94-1.48-1.4a19.93,19.93,0,0,0-24-2L108,93.6a19.94,19.94,0,0,0-7.49,25l0,.14.07.44,9.82,15.32h8.13c-.09-.13-.17-.27-.25-.4l-.18-.27q-2.34-3.67-4.69-7.35l85.84-55,4.37,6.81c4.11,6.4,8.35,13,12.51,19.53,3.61,5.67,3.06,12.29-1.42,16.85a15.54,15.54,0,0,1-2.67,2.11q-13.81,8.88-27.65,17.74h12.72l19.19-12.3A20,20,0,0,0,223.7,97.25ZM107.18,116.49a12.47,12.47,0,0,1-1.37-7.89,12.75,12.75,0,0,1,5.94-9.26l34.25-22,29.38-18.81a13.11,13.11,0,0,1,9.88-1.79,13,13,0,0,1,7.57,4.83Z"/><polygon class="cls-1" points="126.14 132.59 127.34 134.46 135.68 134.46 147.41 126.94 143.79 121.28 126.14 132.59"/><polygon class="cls-1" points="168.47 124.7 164.79 118.96 140.6 134.46 153.25 134.46 168.47 124.7"/></svg>