<svg id="Camada_1" data-name="Camada 1" xmlns="http://www.w3.org/2000/svg" viewBox="0 0 299.5 292.71"><defs><style>.cls-1{fill:#5f96d8;}</style></defs><title>ícones_menu_créditos</title><path class="cls-1" d="M149.42,157.83H52.17s0,0,0,0l-1.68-10a4.42,4.42,0,0,0-4.37-3.7H30.57a4.43,4.43,0,0,0-4.41,4.84,4.59,4.59,0,0,0,4.65,4H42.29s0,0,0,0l13.13,78.82,0,.08a4.37,4.37,0,0,1,.23.58l.05.17a3.38,3.38,0,0,0,.18.51,4.67,4.67,0,0,0,.53.77l.15.19c.11.13.21.27.26.32a4.73,4.73,0,0,0,.84.54c.16.08.3.18.45.27l.1.07a4.32,4.32,0,0,0,1.57.32h75.79a4.44,4.44,0,0,0,4.42-4.84,4.6,4.6,0,0,0-4.65-4H63.64s0,0,0,0L61.66,215s0,0,0,0h80.83a4.44,4.44,0,0,0,4.39-3.8l6.89-48.23a4.44,4.44,0,0,0-4.39-5.07ZM83,206a0,0,0,0,1,0,0H60.2s0,0,0,0l-3.1-18.61a0,0,0,0,1,0,0H82.94a0,0,0,0,1,0,0Zm0-20.67a0,0,0,0,1,0,0h-23l-3.43.2s0,0,0,0l-2.81-18.81s0-.05,0-.05H82.94a0,0,0,0,1,0,0ZM110.54,206a0,0,0,0,1,0,0H85a0,0,0,0,1,0,0V187.41a0,0,0,0,1,0,0h25.5a0,0,0,0,1,0,0Zm0-20.67a0,0,0,0,1,0,0H85a0,0,0,0,1,0,0V166.74a0,0,0,0,1,0,0h25.5a0,0,0,0,1,0,0ZM138.69,206s0,0,0,0H112.56a0,0,0,0,1,0,0V187.41a0,0,0,0,1,0,0H141.3a0,0,0,0,1,0,0Zm3-20.67s0,0,0,0H112.56a0,0,0,0,1,0,0V166.74a0,0,0,0,1,0,0h31.7s.05,0,0,.05Z"/><path class="cls-1" d="M70.19,247.4a7.88,7.88,0,1,0,7.88,7.88A7.9,7.9,0,0,0,70.19,247.4Z"/><path class="cls-1" d="M132.2,247.4a7.88,7.88,0,1,0,7.88,7.88A7.89,7.89,0,0,0,132.2,247.4Z"/><polygon class="cls-1" points="192.25 110.22 191.27 105.82 191.28 105.82 191.03 104.71 190.79 103.66 190.79 103.66 190.79 103.65 180.56 105.93 170.34 108.2 170.34 108.21 170.34 108.21 170.57 109.25 170.82 110.37 170.82 110.37 171.8 114.77 182.02 112.49 192.25 110.22"/><polygon class="cls-1" points="195.03 112.33 183.26 114.94 183.28 114.94 172.53 117.34 174.01 124 197.92 118.68 212.78 115.38 211.31 108.72 211.28 108.73 211.3 108.7 195.03 112.33"/><path class="cls-1" d="M265.9,70.62,264,61.84l0,0,0-.12-.1-.14-.32-.66c-.2-.42-.42-.88-.66-1.33a1,1,0,0,0,0-.1l-.21-.4c-.13-.24-.27-.47-.41-.71s-.21-.37-.32-.54c-.21-.33-.43-.64-.65-1l-.34-.48c-.19-.26-.4-.5-.61-.74a19.88,19.88,0,0,0-19.68-6.69l-36.92,8.23-36.92,8.18a19.9,19.9,0,0,0-15,14.4c-.08.31-.17.61-.23.93s-.07.39-.11.58q-.1.57-.18,1.14c0,.21,0,.42-.06.63s-.06.54-.07.81,0,.3,0,.45v.11c0,.51,0,1,0,1.48v.74l0,.17,0,.12v0L153,95.72l2,8.81h0l6.38,28.63.27.37.07.1a20,20,0,0,0,22.88,12.3l54.32-12.09,19.72-4.37a20,20,0,0,0,15.51-20.83.5.5,0,0,0,0-.12l.09-.45-6.35-28.64h0ZM158.09,86.55a13,13,0,0,1,1.74-8.41l.24-.39a13,13,0,0,1,8.16-5.66q17-3.82,34.05-7.61l2.86-.64,2.86-.63q17-3.78,34.07-7.53a13,13,0,0,1,9.79,1.67l.38.25a12.87,12.87,0,0,1,5.14,6.89L207.74,75.55Zm108.74,20c1.44,6.57-1.37,12.59-7.14,15.33a15.49,15.49,0,0,1-3.23,1.06l-1.68.37h0l-15.41,3.43-15,3.33h0l-40.72,9.05a15.16,15.16,0,0,1-3.37.4c-6.39,0-11.48-4.29-13-10.86-1.7-7.54-3.4-15.21-5.05-22.63l-1.76-7.89L210.29,87l49.77-11,1.76,7.9C263.47,91.3,265.17,99,266.83,106.52Z"/><path class="cls-1" d="M88.64,146a91.7,91.7,0,0,1,12.17-17.42c12-13.5,26.55-21.81,43.29-24.77L143,98.72l-1.7-7.63c-46.11,8.43-64.62,49-67.07,54.91Z"/><path class="cls-1" d="M128.67,146c5.46-5.19,14.3-10.91,22-12.72l-2.83-12.68c-13.72,3.22-30.24,15.09-35.47,25.4Z"/></svg>