<svg id="Camada_1" data-name="Camada 1" xmlns="http://www.w3.org/2000/svg" viewBox="0 0 299.5 292.71"><defs><style>.cls-1{fill:#5f96d8;fill-rule:evenodd;}</style></defs><title>ícones_menu_ajuda</title><g id="Shape_1" data-name="Shape 1"><path class="cls-1" d="M205.67,127.29a1.6,1.6,0,0,0-.11-.57,2.86,2.86,0,0,0-1.12-1.59L188.4,114V102a2.86,2.86,0,0,0-2.87-2.86H167.09l-15.7-10.91a2.86,2.86,0,0,0-3.26,0l-15.8,10.92H114A2.86,2.86,0,0,0,111.1,102v11.81L95,125a2.85,2.85,0,0,0-1.23,2.32s0,0,0,0l.09,62.16a2.87,2.87,0,0,0,2.87,2.87h0l106.19-.15a2.86,2.86,0,0,0,2.86-2.87ZM188.4,121l9.17,6.37-9.17,6.37ZM149.75,94.11,157,99.18H142.42Zm-32.92,10.8h65.84V137.7l-22.11,15.36-9-7,0,0a2.87,2.87,0,0,0-3.48,0l-9.07,7-22.13-15.28Zm-5.73,15.91v13l-9.44-6.52Zm-11.61,12,34.71,24L99.56,183.66Zm5.6,53.81L149.79,152l44.54,34.54Zm60.22-29.88,34.63-24.07.07,51Zm-35-34.63h38.84a2.87,2.87,0,0,0,0-5.74H130.33a2.87,2.87,0,0,0,0,5.74Zm41.71,12a2.88,2.88,0,0,0-2.87-2.87H130.33a2.87,2.87,0,0,0,0,5.74h38.84A2.87,2.87,0,0,0,172,134.16Z"/></g></svg>