<svg id="Camada_1" data-name="Camada 1" xmlns="http://www.w3.org/2000/svg" viewBox="0 0 299.5 292.71"><defs><style>.cls-1{fill:#5f96d8;}</style></defs><title>ícones_menu_créditos</title><path class="cls-1" d="M128.53,139H31.28s0,0,0,0l-1.68-10a4.42,4.42,0,0,0-4.37-3.71H9.68a4.44,4.44,0,0,0-4.41,4.85,4.59,4.59,0,0,0,4.65,4H21.4s0,0,0,0L34.57,213l0,.08c.07.16.14.33.23.58l.05.17a3.38,3.38,0,0,0,.18.51,4.67,4.67,0,0,0,.53.77l.15.19c.1.13.21.27.26.32a4.73,4.73,0,0,0,.84.54,4.68,4.68,0,0,1,.44.27l.11.07a4.32,4.32,0,0,0,1.57.32h75.79a4.45,4.45,0,0,0,4.42-4.84,4.6,4.6,0,0,0-4.65-4H42.75s0,0,0,0l-1.94-11.72s0-.05,0-.05h80.83a4.44,4.44,0,0,0,4.39-3.8l6.89-48.23a4.44,4.44,0,0,0-4.39-5.07ZM62.09,187.22a0,0,0,0,1,0,0H39.31s0,0,0,0l-3.1-18.61s0-.05,0-.05H62.05a0,0,0,0,1,0,0Zm0-20.67a0,0,0,0,1,0,0H39l-3.43.2a0,0,0,0,1,0,0L32.72,148a0,0,0,0,1,.05,0H62.05a0,0,0,0,1,0,0Zm27.56,20.67a0,0,0,0,1,0,0H64.11a0,0,0,0,1,0,0V168.61a0,0,0,0,1,0,0h25.5a0,0,0,0,1,0,0Zm0-20.67a0,0,0,0,1,0,0H64.11a0,0,0,0,1,0,0V147.94a0,0,0,0,1,0,0h25.5a0,0,0,0,1,0,0Zm28.15,20.68s0,0,0,0H91.67a0,0,0,0,1,0,0V168.61a0,0,0,0,1,0,0h28.74a0,0,0,0,1,0,.05Zm3-20.67s0,0,0,0h-29a0,0,0,0,1,0,0V147.94a0,0,0,0,1,0,0h31.7s0,0,0,0Z"/><path class="cls-1" d="M49.3,228.6a7.88,7.88,0,1,0,7.88,7.88A7.88,7.88,0,0,0,49.3,228.6Z"/><path class="cls-1" d="M111.31,228.6a7.88,7.88,0,1,0,7.88,7.88A7.88,7.88,0,0,0,111.31,228.6Z"/><path class="cls-1" d="M289.81,125.25h-15.5a4.42,4.42,0,0,0-4.37,3.71l-1.68,10s0,0,0,0H171a4.44,4.44,0,0,0-4.39,5.07l6.89,48.23a4.44,4.44,0,0,0,4.39,3.8h80.83s0,0,0,.05l-2,11.72s0,0,0,0H185a4.59,4.59,0,0,0-4.65,4,4.44,4.44,0,0,0,4.42,4.84h75.79a4.36,4.36,0,0,0,1.57-.32l.1-.07c.15-.09.29-.19.44-.27a4.52,4.52,0,0,0,.85-.54l.26-.32.14-.19a4.82,4.82,0,0,0,.54-.77,3.38,3.38,0,0,0,.18-.51l.05-.17a3.88,3.88,0,0,1,.23-.58l0-.08,13.13-78.82a0,0,0,0,1,0,0h11.48a4.59,4.59,0,0,0,4.65-4A4.45,4.45,0,0,0,289.81,125.25Zm-81.94,62a0,0,0,0,1,0,0H181.74a0,0,0,0,1-.05,0L179,168.62a0,0,0,0,1,0-.05h28.75a0,0,0,0,1,0,0Zm0-20.67a0,0,0,0,1,0,0H178.78s0,0,0,0L176.09,148s0,0,0,0h31.7a0,0,0,0,1,0,0Zm27.56,20.67a0,0,0,0,1,0,0h-25.5a0,0,0,0,1,0,0V168.61a0,0,0,0,1,0,0h25.5a0,0,0,0,1,0,0Zm0-20.67a0,0,0,0,1,0,0h-25.5a0,0,0,0,1,0,0V147.94a0,0,0,0,1,0,0h25.5a0,0,0,0,1,0,0Zm24.8,20.68s0,0,0,0H237.45a0,0,0,0,1,0,0V168.61a0,0,0,0,1,0,0h25.84a0,0,0,0,1,0,.05ZM264,166.76s0,0,0,0l-3.44-.2h-23a0,0,0,0,1,0,0V147.94a0,0,0,0,1,0,0h29.28s0,0,0,0Z"/><path class="cls-1" d="M250.2,228.6a7.88,7.88,0,1,0,7.88,7.88A7.88,7.88,0,0,0,250.2,228.6Z"/><path class="cls-1" d="M188.19,228.6a7.88,7.88,0,1,0,7.88,7.88A7.89,7.89,0,0,0,188.19,228.6Z"/><rect class="cls-1" x="170.2" y="93.29" width="6.82" height="39.89" transform="translate(-18.5 191.05) rotate(-55.17)"/><rect class="cls-1" x="167.87" y="89.61" width="6.72" height="20.96" transform="translate(-8.73 183.46) rotate(-55.17)"/><path class="cls-1" d="M182.05,135.68q-15.74-10.08-31.48-20.19a15.06,15.06,0,0,1-2.66-2.11c-4.48-4.56-5-11.17-1.42-16.85C150.64,90,154.88,83.4,159,77l4.37-6.81,85.84,55q-2.35,3.67-4.69,7.35l-.17.27c-.6.95-1.21,1.9-1.82,2.85h8.12L262,117.91l.08-.43a.4.4,0,0,1,0-.15,19.94,19.94,0,0,0-7.5-25l-63.81-40.9a19.93,19.93,0,0,0-24,2c-.52.46-1,1-1.48,1.4l-.77.75L139,95.45l-.07.45s0,.09,0,.13a20,20,0,0,0,7.39,24.9l23,14.75Zm-4.68-80.13a13.05,13.05,0,0,1,9.88,1.78l29.38,18.81,34.25,22a12.78,12.78,0,0,1,5.95,9.26,12.53,12.53,0,0,1-1.38,7.89L169.8,60.37A12.89,12.89,0,0,1,177.37,55.55Z"/></svg>