<svg id="Camada_1" data-name="Camada 1" xmlns="http://www.w3.org/2000/svg" viewBox="0 0 299.5 292.71"><defs><style>.cls-1{fill:#5f96d8;}</style></defs><title>histórico</title><path class="cls-1" d="M153.88,111.82a5.51,5.51,0,0,0-5.51,5.51v32.06a5.51,5.51,0,0,0,5.51,5.51h20.41a5.51,5.51,0,1,0,0-11h-14.9V117.33A5.51,5.51,0,0,0,153.88,111.82Z"/><path class="cls-1" d="M205.92,166.36a3.42,3.42,0,0,1,.13-.34A53.92,53.92,0,1,0,102.46,139.3l-3.24-3.49a5.52,5.52,0,1,0-8.08,7.51l11.92,12.83a5.52,5.52,0,0,0,7.79.29l12.84-11.92a5.51,5.51,0,0,0,.29-7.79,5.56,5.56,0,0,0-4-1.77,5.49,5.49,0,0,0-3.75,1.48l-2.43,2.25a42.85,42.85,0,1,1,83.87,17.44h-.05a43.9,43.9,0,0,1-1.47,5,42.85,42.85,0,0,1-69.76,16l2.63.34a5.45,5.45,0,0,0,3.91-1,5.54,5.54,0,0,0,2.27-3.78,5.4,5.4,0,0,0-1.09-4.07,5.53,5.53,0,0,0-3.66-2.12L113,164.25a5.54,5.54,0,0,0-6.19,4.75l-2.28,17.37a5.51,5.51,0,0,0,4.75,6.18,5.45,5.45,0,0,0,3.91-1,5.59,5.59,0,0,0,2.28-3.77l.62-4.72a53.94,53.94,0,0,0,89.38-15.76C205.65,167,205.79,166.68,205.92,166.36Z"/></svg>