<svg id="Camada_1" data-name="Camada 1" xmlns="http://www.w3.org/2000/svg" viewBox="0 0 299.5 292.71"><defs><style>.cls-1{fill:#5f96d8;}</style></defs><title>histórico</title><path class="cls-1" d="M179.84,149.62a5.51,5.51,0,0,0-5.51-5.51h-14.9V117.55a5.51,5.51,0,0,0-11,0v32.07a5.52,5.52,0,0,0,5.52,5.51h20.4A5.51,5.51,0,0,0,179.84,149.62Z"/><path class="cls-1" d="M198.73,143.35h11.05a53.76,53.76,0,0,0-49.91-50.74v11a42.76,42.76,0,0,1,38.86,39.69Z"/><path class="cls-1" d="M102.5,139.52,99.27,136a5.6,5.6,0,0,0-4-1.76,5.52,5.52,0,0,0-4,9.27l11.92,12.83a5.49,5.49,0,0,0,7.79.29l12.84-11.91A5.52,5.52,0,0,0,124,137a5.53,5.53,0,0,0-7.8-.29l-2.43,2.26a42.72,42.72,0,0,1,34.08-34.67V93.06a53.88,53.88,0,0,0-45.37,46.46Z"/><path class="cls-1" d="M121.76,175.05a5.52,5.52,0,0,0-3.9,9.41,53.51,53.51,0,0,0,30,15.19v-11.2a42.61,42.61,0,0,1-22.21-11.79A5.48,5.48,0,0,0,121.76,175.05Z"/><path class="cls-1" d="M186.31,176.66A42.54,42.54,0,0,1,159.87,189V200.1a53.81,53.81,0,0,0,49.24-44.75H197.88A42.67,42.67,0,0,1,186.31,176.66Z"/></svg>