<svg id="Camada_1" data-name="Camada 1" xmlns="http://www.w3.org/2000/svg" viewBox="0 0 299.5 292.71"><defs><style>.cls-1{fill:#5f96d8;fill-rule:evenodd;}</style></defs><title>ícones_menu_ajuda</title><g id="Shape_1" data-name="Shape 1"><path class="cls-1" d="M177.22,157.66a9.3,9.3,0,0,0-6.75-3.1,9.62,9.62,0,0,0-6.83,3.08l-6.31,6.29-1.54-.8c-.72-.36-1.4-.69-2-1a68.53,68.53,0,0,1-16.43-15,40.23,40.23,0,0,1-5.4-8.51c1.64-1.5,3.16-3.05,4.64-4.55l1.68-1.7c4.19-4.19,4.19-9.63,0-13.82l-5.46-5.46c-.62-.62-1.26-1.26-1.85-1.89-1.2-1.24-2.46-2.52-3.76-3.72a9.45,9.45,0,0,0-6.69-2.94,9.77,9.77,0,0,0-6.79,2.94l0,0-6.79,6.85a14.6,14.6,0,0,0-4.33,9.29c-.48,5.83,1.23,11.27,2.55,14.82,3.24,8.73,8.07,16.82,15.28,25.49a93.88,93.88,0,0,0,31.3,24.51c4.59,2.18,10.72,4.76,17.57,5.2.42,0,.86,0,1.26,0a15,15,0,0,0,11.52-5s.06-.06.08-.1a47.14,47.14,0,0,1,3.5-3.61c.86-.82,1.74-1.68,2.6-2.58a10,10,0,0,0,3-6.91,9.62,9.62,0,0,0-3.07-6.85Zm7.15,21c-.78.84-1.58,1.59-2.44,2.43a54.5,54.5,0,0,0-3.85,4,9.62,9.62,0,0,1-7.51,3.18c-.3,0-.62,0-.92,0-5.93-.38-11.44-2.7-15.58-4.68a88.71,88.71,0,0,1-29.48-23.09c-6.81-8.21-11.36-15.8-14.38-24-1.85-5-2.53-8.85-2.23-12.51a9.17,9.17,0,0,1,2.75-5.93l6.81-6.82a4.58,4.58,0,0,1,3-1.41,4.31,4.31,0,0,1,2.92,1.39l.06.06c1.21,1.14,2.37,2.32,3.59,3.58l1.9,1.94,5.45,5.45c2.12,2.12,2.12,4.08,0,6.19-.58.58-1.14,1.16-1.72,1.72-1.67,1.72-3.27,3.32-5,4.88,0,0-.08.06-.1.1a4.06,4.06,0,0,0-1,4.53l.06.18a44,44,0,0,0,6.45,10.53l0,0a73.23,73.23,0,0,0,17.74,16.14c.82.52,1.66.94,2.45,1.34s1.4.7,2,1.06l.24.14a4.34,4.34,0,0,0,2,.5,4.25,4.25,0,0,0,3-1.38l6.83-6.83a4.52,4.52,0,0,1,3-1.5,4.07,4.07,0,0,1,2.88,1.46l0,0,11,11C186.41,174.48,186.41,176.58,184.37,178.7Zm-30.8-57.16a25.7,25.7,0,0,1,20.93,20.94,2.68,2.68,0,0,0,2.66,2.24,3.57,3.57,0,0,0,.46,0,2.7,2.7,0,0,0,2.22-3.12,31.09,31.09,0,0,0-25.33-25.33,2.7,2.7,0,0,0-3.11,2.2A2.67,2.67,0,0,0,153.57,121.54ZM197,140.78a51.17,51.17,0,0,0-41.7-41.71,2.69,2.69,0,0,0-.88,5.31,45.72,45.72,0,0,1,37.27,37.28,2.68,2.68,0,0,0,2.66,2.24,3.57,3.57,0,0,0,.46,0A2.65,2.65,0,0,0,197,140.78Z"/></g></svg>