<svg id="Camada_1" data-name="Camada 1" xmlns="http://www.w3.org/2000/svg" viewBox="0 0 299.5 292.71"><defs><style>.cls-1{fill:#5f96d8;fill-rule:evenodd;}</style></defs><title>ícones_menu_ajuda</title><g id="Forma_1" data-name="Forma 1"><path class="cls-1" d="M209,125.61c-8-6.16-18.61-9.54-29.86-9.54a52.39,52.39,0,0,0-19.27,3.58,36.26,36.26,0,0,0-14.12-14.21,50.6,50.6,0,0,0-25.33-6.51c-11.25,0-21.85,3.39-29.86,9.54-8.24,6.33-12.78,14.81-12.78,23.89,0,8.18,3.74,16,10.56,22l.12,19.92a2.83,2.83,0,0,0,1.45,2.53,3.1,3.1,0,0,0,2.92,0l20.65-11.53a55.39,55.39,0,0,0,6.94.44h0a52.46,52.46,0,0,0,19.24-3.58,34.15,34.15,0,0,0,9.62,11.18c8,6.15,18.61,9.54,29.86,9.54a54,54,0,0,0,7-.45l20.68,10.91a2.63,2.63,0,0,0,2.88-.08,3,3,0,0,0,1.43-2.5l.12-19.26c6.82-6.09,10.56-13.87,10.56-22.05C221.75,140.42,217.21,131.93,209,125.61Zm-71.51,31.14a46.69,46.69,0,0,1-17.07,3.16h0a50.15,50.15,0,0,1-7.15-.52A2.9,2.9,0,0,0,111,160l-16.71,9.33-.09-16.23v-.18a3,3,0,0,0-1.06-2.12c-6.12-5.08-9.49-11.63-9.49-18.44,0-15.19,16.49-27.55,36.76-27.55,15,0,28.6,7,34.13,17.35a43.56,43.56,0,0,0-5.28,3.45c-8.24,6.32-12.77,14.81-12.77,23.89A27.15,27.15,0,0,0,137.46,156.75Zm72.07,8.18c-.64.7-1.31,1.38-2,2-.36.33-.73.65-1.11,1a2.92,2.92,0,0,0-1.06,2.12v.16l-.1,15.71-16.75-8.83a2.88,2.88,0,0,0-2.22-.57,50,50,0,0,1-7.14.52c-16.6,0-30.67-8.29-35.22-19.63a1.15,1.15,0,0,0-.06-.17,21,21,0,0,1-1.49-7.75c0-.57,0-1.13.08-1.69,0-.13,0-.26,0-.39,0-.46.1-.92.18-1.37,0-.09,0-.19,0-.28,1.49-8.21,7.82-15.28,16.76-19.54h0a2.52,2.52,0,0,0,.33-.15,43.36,43.36,0,0,1,9-3l.32-.07c.66-.14,1.34-.27,2-.38l.38-.06c.75-.12,1.52-.23,2.29-.31l.43,0c.63-.06,1.27-.12,1.91-.15l.64,0c.77,0,1.56-.06,2.35-.06,19.8,0,36.4,12.1,36.74,27.08,0,.15,0,.31,0,.47a21.74,21.74,0,0,1-3.09,11A26.67,26.67,0,0,1,209.53,164.93Zm-13.16-25.28H161.84a2.94,2.94,0,0,0,0,5.88h34.53a2.94,2.94,0,0,0,0-5.88Zm0,13.31H161.84a2.94,2.94,0,0,0,0,5.88h34.53a2.94,2.94,0,0,0,0-5.88Z"/></g></svg>