<svg id="Camada_1" data-name="Camada 1" xmlns="http://www.w3.org/2000/svg" viewBox="0 0 299.5 292.71"><defs><style>.cls-1{fill:#5f96d8;fill-rule:evenodd;}</style></defs><title>ícones_menu_ajuda</title><g id="Forma_1" data-name="Forma 1"><path class="cls-1" d="M149.75,97.35a49,49,0,1,0,49,49A49,49,0,0,0,149.75,97.35Zm4.09,81.87a8.73,8.73,0,0,1-6.36,2.28,8.91,8.91,0,0,1-6.43-2.23A9.72,9.72,0,0,1,141,166.7a9.06,9.06,0,0,1,6.48-2.17,8.86,8.86,0,0,1,6.37,2.21,9.6,9.6,0,0,1,0,12.48ZM169,137.54c-1.57,2.5-4.56,5.34-8.88,8.42a26.47,26.47,0,0,0-5.34,4.73,6.92,6.92,0,0,0-1,4v2a1.5,1.5,0,0,1-1.5,1.5H141.68a1.5,1.5,0,0,1-1.5-1.5v-2.61a15.79,15.79,0,0,1,2-8,25.16,25.16,0,0,1,7-7.1,28.27,28.27,0,0,0,6.16-5.41,7.37,7.37,0,0,0,1.39-4.36,4.42,4.42,0,0,0-1.88-3.9,9.74,9.74,0,0,0-5.68-1.42c-4.24,0-9.15,1.36-14.58,4a1.51,1.51,0,0,1-2-.67l-4.3-8.65a1.49,1.49,0,0,1,.63-2,44.22,44.22,0,0,1,21.27-5.44c6.4,0,11.58,1.58,15.39,4.68a15.52,15.52,0,0,1,5.81,12.61A16.88,16.88,0,0,1,169,137.54Z"/></g></svg>